<?xml version="1.0" encoding="UTF-8"?>
<svg id="Ebene_6" data-name="Ebene 6" xmlns="http://www.w3.org/2000/svg" viewBox="0 0 176.64 147.89">
  <defs>
    <style>
      .cls-1 {
        fill: #1983ad;
      }
    </style>
  </defs>
  <polygon class="cls-1" points="141.19 0 142.56 12.22 162.32 12.22 162.32 135.83 142.56 135.83 141.19 147.89 176.64 147.89 176.64 0 141.19 0"/>
  <polygon class="cls-1" points="129.88 45.79 129.88 125.37 111.01 125.37 111.01 45.79 87.08 45.79 89.25 30.79 154.8 30.79 152.77 45.79 129.88 45.79"/>
  <path class="cls-1" d="m52.14,73.64c-13.2.41-12.97,22.51-10.3,32.11,3.07,11.06,16.23,7.38,19.62-1.69,0,0,0-23.82,0-23.82-1.93-3.66-5.22-6.63-9.32-6.61m9.32-50.07l18.88-1.8v103.6h-17.45l-.23-4.82c-7.9,8.17-21.8,9.79-30.62,2.61-8.39-6.83-10.1-18.18-10.25-29.69.02-11.44,3.14-22.61,11.77-29.31,7.74-6.08,20.86-7.38,27.9.08V23.57Z"/>
  <polygon class="cls-1" points="0 0 0 147.89 35.44 147.89 34.07 135.83 14.32 135.83 14.32 12.22 34.07 12.22 35.44 0 0 0"/>
</svg>