<svg width="622" height="88" viewBox="0 0 622 88" fill="none" xmlns="http://www.w3.org/2000/svg">
<path d="M554.282 87.1071V77.4863H621.474V87.1071H554.282Z" fill="#FBF9F5"/>
<path d="M527.548 76.1006C520.761 76.1006 515.246 74.5736 511.004 71.5193C506.762 68.4651 504.183 64.1723 503.267 58.6408L515.789 56.7065C516.434 59.4213 517.859 61.5592 520.065 63.1203C522.271 64.6813 525.054 65.4618 528.413 65.4618C531.366 65.4618 533.639 64.8849 535.234 63.7311C536.863 62.5434 537.678 60.9314 537.678 58.8953C537.678 57.6397 537.372 56.6386 536.761 55.892C536.185 55.1115 534.895 54.3649 532.893 53.6523C530.891 52.9396 527.819 52.0403 523.679 50.9544C519.064 49.7327 515.399 48.4262 512.684 47.0348C509.969 45.6095 508.018 43.9297 506.83 41.9954C505.643 40.0611 505.049 37.7195 505.049 34.9707C505.049 31.5432 505.948 28.5569 507.747 26.0117C509.545 23.4666 512.056 21.5153 515.28 20.1578C518.504 18.7665 522.305 18.0708 526.683 18.0708C530.959 18.0708 534.742 18.7325 538.034 20.056C541.36 21.3795 544.041 23.2629 546.077 25.7063C548.113 28.1497 549.369 31.0172 549.844 34.309L537.321 36.5487C537.016 34.2072 535.947 32.3577 534.115 31.0003C532.316 29.6428 529.907 28.8793 526.886 28.7096C524.002 28.5399 521.677 28.9811 519.912 30.0331C518.148 31.0512 517.266 32.4934 517.266 34.3599C517.266 35.4119 517.622 36.3112 518.334 37.0578C519.047 37.8043 520.472 38.5509 522.61 39.2975C524.782 40.0441 528.006 40.9604 532.282 42.0463C536.66 43.1662 540.155 44.4557 542.768 45.9149C545.415 47.3402 547.315 49.054 548.469 51.0562C549.657 53.0584 550.251 55.4848 550.251 58.3354C550.251 63.8669 548.232 68.2106 544.193 71.3666C540.189 74.5226 534.641 76.1006 527.548 76.1006Z" fill="#FBF9F5"/>
<path d="M471.636 76.1006C465.969 76.1006 461.133 74.845 457.129 72.3338C453.125 69.7886 450.053 66.3272 447.915 61.9495C445.811 57.5718 444.742 52.6172 444.708 47.0857C444.742 41.4524 445.845 36.4639 448.017 32.1201C450.223 27.7424 453.345 24.3149 457.383 21.8377C461.422 19.3264 466.224 18.0708 471.789 18.0708C478.033 18.0708 483.31 19.6488 487.62 22.8048C491.964 25.9269 494.797 30.2028 496.121 35.6325L483.904 38.9412C482.954 35.9888 481.376 33.6981 479.17 32.0692C476.964 30.4064 474.453 29.575 471.636 29.575C468.446 29.575 465.816 30.3385 463.746 31.8656C461.676 33.3588 460.149 35.4289 459.165 38.0758C458.181 40.7228 457.689 43.7261 457.689 47.0857C457.689 52.3118 458.86 56.5368 461.201 59.7607C463.543 62.9845 467.021 64.5965 471.636 64.5965C474.894 64.5965 477.456 63.8499 479.323 62.3567C481.223 60.8636 482.648 58.7087 483.599 55.892L496.121 58.6917C494.424 64.2911 491.455 68.6009 487.213 71.6212C482.971 74.6075 477.779 76.1006 471.636 76.1006Z" fill="#FBF9F5"/>
<path d="M420.248 11.2496V0H432.515V11.2496H420.248ZM420.248 74.5734V19.5978H432.515V74.5734H420.248Z" fill="#FBF9F5"/>
<path d="M407.407 74.5736C403.776 75.2523 400.213 75.5407 396.718 75.4389C393.256 75.371 390.151 74.7432 387.402 73.5555C384.654 72.3338 382.567 70.4165 381.141 67.8034C379.886 65.4279 379.224 63.0015 379.156 60.5242C379.088 58.0469 379.054 55.2472 379.054 52.1252V4.3269H391.271V51.4125C391.271 53.6183 391.288 55.5527 391.322 57.2155C391.39 58.8784 391.746 60.2358 392.391 61.2878C393.613 63.3239 395.564 64.4608 398.245 64.6983C400.926 64.9359 403.98 64.8001 407.407 64.2911V74.5736ZM369.077 29.2187V19.5979H407.407V29.2187H369.077Z" fill="#FBF9F5"/>
<path d="M340.501 76.1006C334.833 76.1006 329.998 74.845 325.993 72.3338C321.989 69.7886 318.918 66.3272 316.78 61.9495C314.676 57.5718 313.607 52.6172 313.573 47.0857C313.607 41.4524 314.71 36.4639 316.881 32.1201C319.087 27.7424 322.209 24.3149 326.248 21.8377C330.286 19.3264 335.088 18.0708 340.653 18.0708C346.898 18.0708 352.174 19.6488 356.484 22.8048C360.828 25.9269 363.662 30.2028 364.985 35.6325L352.768 38.9412C351.818 35.9888 350.24 33.6981 348.034 32.0692C345.829 30.4064 343.317 29.575 340.501 29.575C337.311 29.575 334.681 30.3385 332.611 31.8656C330.541 33.3588 329.013 35.4289 328.029 38.0758C327.045 40.7228 326.553 43.7261 326.553 47.0857C326.553 52.3118 327.724 56.5368 330.065 59.7607C332.407 62.9845 335.885 64.5965 340.501 64.5965C343.758 64.5965 346.321 63.8499 348.187 62.3567C350.087 60.8636 351.513 58.7087 352.463 55.892L364.985 58.6917C363.288 64.2911 360.319 68.6009 356.077 71.6212C351.835 74.6075 346.643 76.1006 340.501 76.1006Z" fill="#FBF9F5"/>
<path d="M273.342 76.1006C269.371 76.1006 266.011 75.3541 263.263 73.8609C260.514 72.3338 258.427 70.3146 257.002 67.8034C255.61 65.2922 254.915 62.5264 254.915 59.5061C254.915 56.8592 255.356 54.4837 256.238 52.3797C257.12 50.2417 258.478 48.4092 260.31 46.8821C262.143 45.3211 264.518 44.0485 267.437 43.0644C269.643 42.3517 272.222 41.7069 275.174 41.13C278.16 40.5531 281.384 40.0271 284.846 39.552C288.341 39.043 291.989 38.5 295.79 37.9231L291.412 40.4174C291.446 36.6166 290.598 33.8169 288.867 32.0183C287.136 30.2197 284.218 29.3204 280.112 29.3204C277.634 29.3204 275.242 29.8973 272.934 31.0512C270.627 32.205 269.015 34.1902 268.099 37.0069L256.9 33.4945C258.257 28.8453 260.836 25.1124 264.637 22.2958C268.472 19.4791 273.63 18.0708 280.112 18.0708C284.998 18.0708 289.291 18.8683 292.99 20.4633C296.723 22.0582 299.489 24.6713 301.288 28.3024C302.272 30.2367 302.866 32.2219 303.069 34.2581C303.273 36.2603 303.375 38.4491 303.375 40.8246V74.5735H292.634V62.6622L294.416 64.5965C291.938 68.567 289.037 71.4854 285.711 73.3519C282.419 75.1844 278.296 76.1006 273.342 76.1006ZM275.785 66.3272C278.568 66.3272 280.943 65.8351 282.911 64.851C284.88 63.8669 286.441 62.6622 287.595 61.2369C288.782 59.8116 289.58 58.4711 289.987 57.2155C290.632 55.6545 290.988 53.8728 291.056 51.8706C291.158 49.8345 291.209 48.1886 291.209 46.933L294.976 48.0529C291.277 48.6298 288.104 49.1388 285.457 49.58C282.81 50.0212 280.536 50.4453 278.636 50.8526C276.735 51.2259 275.055 51.6501 273.596 52.1252C272.171 52.6342 270.966 53.2281 269.982 53.9068C268.998 54.5855 268.234 55.366 267.691 56.2483C267.182 57.1307 266.928 58.1657 266.928 59.3534C266.928 60.7109 267.267 61.9156 267.946 62.9676C268.625 63.9856 269.609 64.8001 270.898 65.4109C272.222 66.0218 273.851 66.3272 275.785 66.3272Z" fill="#FBF9F5"/>
<path d="M246.147 74.5736C242.516 75.2523 238.953 75.5407 235.457 75.4389C231.996 75.371 228.891 74.7432 226.142 73.5555C223.393 72.3338 221.306 70.4165 219.881 67.8034C218.625 65.4279 217.964 63.0015 217.896 60.5242C217.828 58.0469 217.794 55.2472 217.794 52.1252V4.3269H230.011V51.4125C230.011 53.6183 230.028 55.5527 230.062 57.2155C230.13 58.8784 230.486 60.2358 231.131 61.2878C232.352 63.3239 234.304 64.4608 236.985 64.6983C239.665 64.9359 242.72 64.8001 246.147 64.2911V74.5736ZM207.817 29.2187V19.5979H246.147V29.2187H207.817Z" fill="#FBF9F5"/>
<path d="M173.933 76.1006C169.691 76.1006 166.162 75.3541 163.345 73.8609C160.562 72.3677 158.475 70.3995 157.084 67.9561C155.693 65.4788 154.997 62.7979 154.997 59.9134C154.997 56.7913 155.642 54.1783 156.931 52.0743C158.255 49.9702 160.003 48.2735 162.174 46.9839C164.38 45.6944 166.807 44.7272 169.454 44.0824C172.474 43.4037 175.732 42.8268 179.227 42.3517C182.722 41.8427 186.048 41.4015 189.204 41.0282C192.394 40.6549 194.99 40.3325 196.992 40.0611L194.854 41.3336C194.99 35.3949 193.87 30.9833 191.495 28.0988C189.153 25.1803 185.013 23.7211 179.074 23.7211C174.9 23.7211 171.456 24.6713 168.741 26.5717C166.06 28.4381 164.177 31.3396 163.091 35.2761L157.084 33.5963C158.34 28.6078 160.868 24.7731 164.669 22.0922C168.469 19.4113 173.339 18.0708 179.278 18.0708C184.334 18.0708 188.576 19.0549 192.004 21.0232C195.465 22.9915 197.875 25.7572 199.232 29.3204C199.809 30.7797 200.199 32.4934 200.403 34.4617C200.606 36.396 200.708 38.3473 200.708 40.3156V74.5735H195.363V60.117L197.349 60.626C195.686 65.5806 192.784 69.3984 188.644 72.0793C184.504 74.7602 179.6 76.1006 173.933 76.1006ZM174.239 70.7049C177.971 70.7049 181.246 70.0431 184.063 68.7197C186.88 67.3622 189.153 65.4788 190.884 63.0694C192.649 60.626 193.768 57.7585 194.244 54.4667C194.583 52.6342 194.77 50.649 194.804 48.511C194.837 46.3731 194.854 44.7951 194.854 43.777L197.4 45.4059C195.194 45.6774 192.547 45.9658 189.459 46.2713C186.404 46.5767 183.282 46.95 180.092 47.3911C176.902 47.8323 174.018 48.3922 171.439 49.071C169.844 49.5121 168.232 50.1569 166.603 51.0053C165.008 51.8197 163.668 52.9566 162.582 54.4158C161.53 55.875 161.004 57.7245 161.004 59.9643C161.004 61.6271 161.411 63.29 162.225 64.9528C163.074 66.6157 164.465 67.99 166.399 69.076C168.334 70.1619 170.947 70.7049 174.239 70.7049Z" fill="#FBF9F5"/>
<path d="M147.55 74.5736C144.632 75.2183 141.747 75.4559 138.896 75.2862C136.046 75.1505 133.501 74.5227 131.261 73.4028C129.055 72.249 127.392 70.4843 126.272 68.1088C125.356 66.1745 124.847 64.2232 124.745 62.2549C124.643 60.2867 124.593 58.03 124.593 55.4848V4.3269H130.497V55.383C130.497 57.6906 130.514 59.608 130.548 61.1351C130.616 62.6282 130.972 64.0026 131.617 65.2582C132.839 67.5998 134.773 69.0251 137.42 69.5341C140.067 70.0092 143.444 69.9244 147.55 69.2796V74.5736ZM112.274 24.9428V19.5979H147.55V24.9428H112.274Z" fill="#FBF9F5"/>
<path d="M78.3897 76.1006C74.1477 76.1006 70.6184 75.3541 67.8018 73.8609C65.0191 72.3677 62.932 70.3995 61.5407 67.9561C60.1493 65.4788 59.4536 62.7979 59.4536 59.9134C59.4536 56.7913 60.0984 54.1783 61.3879 52.0743C62.7114 49.9702 64.4591 48.2735 66.631 46.9839C68.8368 45.6944 71.2632 44.7272 73.9102 44.0824C76.9304 43.4037 80.1883 42.8268 83.6836 42.3517C87.179 41.8427 90.5047 41.4015 93.6607 41.0282C96.8506 40.6549 99.4467 40.3325 101.449 40.0611L99.311 41.3336C99.4467 35.3949 98.3268 30.9833 95.9513 28.0988C93.6098 25.1803 89.4696 23.7211 83.5309 23.7211C79.3568 23.7211 75.9124 24.6713 73.1975 26.5717C70.5166 28.4381 68.6332 31.3396 67.5473 35.2761L61.5407 33.5963C62.7963 28.6078 65.3245 24.7731 69.1253 22.0922C72.926 19.4113 77.7958 18.0708 83.7345 18.0708C88.7909 18.0708 93.0329 19.0549 96.4604 21.0232C99.9218 22.9915 102.331 25.7572 103.689 29.3204C104.266 30.7797 104.656 32.4934 104.859 34.4617C105.063 36.396 105.165 38.3473 105.165 40.3156V74.5735H99.82V60.117L101.805 60.626C100.142 65.5806 97.2409 69.3984 93.1007 72.0793C88.9606 74.7602 84.0569 76.1006 78.3897 76.1006ZM78.6951 70.7049C82.428 70.7049 85.7028 70.0431 88.5194 68.7197C91.3361 67.3622 93.6098 65.4788 95.3405 63.0694C97.1052 60.626 98.225 57.7585 98.7001 54.4667C99.0395 52.6342 99.2261 50.649 99.2601 48.511C99.294 46.3731 99.311 44.7951 99.311 43.777L101.856 45.4059C99.6503 45.6774 97.0033 45.9658 93.9152 46.2713C90.861 46.5767 87.7389 46.95 84.549 47.3911C81.359 47.8323 78.4745 48.3922 75.8954 49.071C74.3004 49.5121 72.6885 50.1569 71.0596 51.0053C69.4646 51.8197 68.1242 52.9566 67.0382 54.4158C65.9862 55.875 65.4602 57.7245 65.4602 59.9643C65.4602 61.6271 65.8674 63.29 66.6819 64.9528C67.5303 66.6157 68.9216 67.99 70.856 69.076C72.7903 70.1619 75.4033 70.7049 78.6951 70.7049Z" fill="#FBF9F5"/>
<path d="M24.1791 75.9593C18.987 75.9593 14.5923 74.6867 10.9951 72.1416C7.43189 69.5625 4.70008 66.0841 2.79969 61.7064C0.933229 57.2947 0 52.3401 0 46.8426C0 41.4129 0.933229 36.5092 2.79969 32.1315C4.66614 27.7538 7.34705 24.2924 10.8424 21.7472C14.3717 19.202 18.6306 17.9295 23.6192 17.9295C28.7434 17.9295 33.0702 19.1851 36.5995 21.6963C40.1288 24.2075 42.7928 27.652 44.5914 32.0297C46.3899 36.3735 47.2892 41.3111 47.2892 46.8426C47.2892 52.3401 46.3899 57.2778 44.5914 61.6555C42.7928 66.0332 40.1797 69.5116 36.7522 72.0907C33.3247 74.6698 29.1337 75.9593 24.1791 75.9593ZM24.5354 70.3599C28.6416 70.3599 32.0522 69.3419 34.767 67.3057C37.5158 65.2357 39.5519 62.436 40.8754 58.9067C42.2328 55.3434 42.9115 51.3221 42.9115 46.8426C42.9115 42.3291 42.2328 38.3078 40.8754 34.7785C39.518 31.2492 37.4819 28.5004 34.767 26.5321C32.0522 24.5299 28.6756 23.5288 24.6372 23.5288C20.4632 23.5288 17.0187 24.5639 14.3038 26.6339C11.589 28.6701 9.56983 31.4528 8.24635 34.9821C6.92286 38.4775 6.26112 42.431 6.26112 46.8426C6.26112 51.2881 6.93983 55.2925 8.29725 58.8558C9.68861 62.3851 11.7247 65.1848 14.4057 67.2548C17.1205 69.3249 20.4971 70.3599 24.5354 70.3599ZM42.9115 74.4322V32.0806H42.4025V1.13135H48.2564V74.4322H42.9115Z" fill="#FBF9F5"/>
</svg>
